<svg width="35" height="35" viewBox="0 0 35 35" fill="none" xmlns="http://www.w3.org/2000/svg">
<rect width="35" height="35" rx="10" fill="url(#paint0_linear_1594_11011)"/>
<path d="M12 12.75V23.25H24V12.75H12ZM11.25 11.25H24.75C24.9489 11.25 25.1397 11.329 25.2803 11.4697C25.421 11.6103 25.5 11.8011 25.5 12V24C25.5 24.1989 25.421 24.3897 25.2803 24.5303C25.1397 24.671 24.9489 24.75 24.75 24.75H11.25C11.0511 24.75 10.8603 24.671 10.7197 24.5303C10.579 24.3897 10.5 24.1989 10.5 24V12C10.5 11.8011 10.579 11.6103 10.7197 11.4697C10.8603 11.329 11.0511 11.25 11.25 11.25ZM13.5 14.25H15.75V21.75H13.5V14.25ZM16.5 14.25H18V21.75H16.5V14.25ZM18.75 14.25H19.5V21.75H18.75V14.25ZM20.25 14.25H22.5V21.75H20.25V14.25Z" fill="white"/>
<defs>
<linearGradient id="paint0_linear_1594_11011" x1="42.2574" y1="29.3243" x2="6.65227" y2="30.8742" gradientUnits="userSpaceOnUse">
<stop stop-color="#12794E"/>
<stop offset="1" stop-color="#00CF79"/>
</linearGradient>
</defs>
</svg>
