<svg width="35" height="35" viewBox="0 0 35 35" fill="none" xmlns="http://www.w3.org/2000/svg">
<rect width="35" height="35" rx="10" fill="url(#paint0_linear_1594_10970)"/>
<path fill-rule="evenodd" clip-rule="evenodd" d="M12.6562 12.9375C11.8796 12.9375 11.25 13.5671 11.25 14.3438V21.6562C11.25 22.4329 11.8796 23.0625 12.6562 23.0625H23.3438C24.1204 23.0625 24.75 22.4329 24.75 21.6562V14.3438C24.75 13.5671 24.1204 12.9375 23.3438 12.9375H12.6562ZM10.125 14.3438C10.125 12.9458 11.2583 11.8125 12.6562 11.8125H23.3438C24.7417 11.8125 25.875 12.9458 25.875 14.3438V21.6562C25.875 23.0542 24.7417 24.1875 23.3438 24.1875H12.6562C11.2583 24.1875 10.125 23.0542 10.125 21.6562V14.3438Z" fill="white"/>
<path fill-rule="evenodd" clip-rule="evenodd" d="M25.3125 16.8047H10.6875V14.6953H25.3125V16.8047ZM12.4453 19.5469C12.4453 18.9644 12.9175 18.4922 13.5 18.4922H15.1875C15.77 18.4922 16.2422 18.9644 16.2422 19.5469V20.25C16.2422 20.8325 15.77 21.3047 15.1875 21.3047H13.5C12.9175 21.3047 12.4453 20.8325 12.4453 20.25V19.5469Z" fill="white"/>
<defs>
<linearGradient id="paint0_linear_1594_10970" x1="42.2574" y1="29.3243" x2="6.65227" y2="30.8742" gradientUnits="userSpaceOnUse">
<stop stop-color="#12794E"/>
<stop offset="1" stop-color="#00CF79"/>
</linearGradient>
</defs>
</svg>
