<svg width="163" height="69" viewBox="0 0 163 69" fill="none" xmlns="http://www.w3.org/2000/svg">
<path d="M0 39.1595V23.5197C0 19.6968 1.12978 16.6176 3.38933 14.2821C5.64889 11.9467 8.67163 10.7783 12.4576 10.7771C16.2435 10.7771 19.2755 11.9357 21.5535 14.253C23.8316 16.5703 24.9706 19.6592 24.9706 23.5197V39.1595H20.1749V23.4633C20.1749 21.0684 19.4764 19.1181 18.0793 17.6125C16.6823 16.1068 14.8453 15.3534 12.5684 15.3522C10.2534 15.3522 8.36971 16.0959 6.91722 17.5833C5.46473 19.0708 4.73906 21.0307 4.74022 23.4633V39.1595H0Z" fill="white"/>
<path d="M137.135 39.1595V23.5197C137.135 19.6956 138.265 16.6164 140.525 14.2821C142.784 11.9479 145.807 10.7795 149.593 10.7771C153.378 10.7771 156.41 11.9357 158.689 14.253C160.968 16.5703 162.107 19.6592 162.106 23.5197V39.1595H157.31V23.4633C157.31 21.0684 156.612 19.1181 155.215 17.6125C153.818 16.1068 151.98 15.3534 149.702 15.3522C147.387 15.3522 145.504 16.0959 144.053 17.5833C142.601 19.0708 141.876 21.0307 141.876 23.4633V39.1595H137.135Z" fill="white"/>
<path d="M85.8799 39.1594V1.13184H90.7812V9.87622H96.538L95.7777 14.6078H90.7812V39.1594H85.8799Z" fill="white"/>
<path d="M99.3974 3.87443C99.389 3.36448 99.4803 2.85814 99.6656 2.38673C99.8509 1.91532 100.126 1.48887 100.475 1.13374C101.167 0.407727 102.105 0 103.084 0C104.062 0 105 0.407727 105.693 1.13374C106.041 1.48913 106.316 1.91563 106.501 2.38698C106.687 2.85833 106.778 3.36454 106.77 3.87443C106.773 4.37419 106.679 4.86937 106.494 5.32968C106.309 5.78999 106.036 6.20572 105.693 6.55143C105 7.27656 104.062 7.68367 103.084 7.68367C102.106 7.68367 101.168 7.27656 100.475 6.55143C100.131 6.20598 99.8579 5.7903 99.6727 5.32993C99.4874 4.86957 99.3937 4.37425 99.3974 3.87443ZM100.587 39.1595V10.4295H105.473V39.1595H100.587Z" fill="white"/>
<path d="M59.8077 3.37946C60.0841 3.38093 60.3601 3.4016 60.6339 3.44134C60.7208 3.45075 60.8049 3.47927 60.8807 3.52504C60.9565 3.57081 61.0223 3.63282 61.0738 3.70704C61.1361 3.79985 61.2002 3.88902 61.2556 3.98729C61.6384 4.68066 62.0228 5.3722 62.4021 6.06738C64.6755 10.2276 66.9426 14.3877 69.2033 18.5479C70.2898 20.54 71.3711 22.5352 72.4472 24.5334C72.4922 24.6171 72.5372 24.699 72.5788 24.7827C72.6996 25.018 72.7406 25.2895 72.6948 25.5525C72.6768 25.6644 72.6354 25.7707 72.5736 25.8637C72.3155 26.2677 72.054 26.6736 71.8012 27.0757C69.2714 30.9496 66.7394 34.8241 64.205 38.6991C63.032 40.4935 61.856 42.2854 60.6772 44.075C60.5715 44.2369 60.4641 44.3953 60.355 44.5536C60.3078 44.6175 60.2569 44.6783 60.2026 44.7356C60.1168 44.8361 59.9993 44.9008 59.8718 44.9176C59.6525 44.9511 59.4317 44.973 59.2102 44.9831C57.9615 44.9958 52.5078 44.9994 51.6262 44.9831C51.3751 44.9831 51.124 44.9449 50.8728 44.9176C50.7216 44.9014 50.5823 44.8237 50.4849 44.701C50.4532 44.6628 50.4197 44.6264 50.3845 44.5918C50.2677 44.4681 50.1809 44.3168 50.1312 44.1506C50.0815 43.9843 50.0703 43.808 50.0987 43.6364C50.1134 43.4789 50.1698 43.3288 50.2615 43.2033C50.8815 42.3261 51.4929 41.4435 52.1146 40.5681C54.7263 36.8872 57.3404 33.2056 59.9567 29.5234C60.7378 28.4206 61.5154 27.3105 62.2878 26.204C62.3796 26.0712 62.461 25.9347 62.558 25.8018C62.6108 25.7325 62.6427 25.6483 62.6498 25.5598C62.6576 25.4277 62.6576 25.2952 62.6498 25.1631C62.6374 25.0562 62.5999 24.9543 62.5407 24.8664C62.2064 24.3205 61.8774 23.7745 61.5414 23.2286C59.0544 19.1873 56.565 15.1448 54.0734 11.1011C52.8992 9.19389 51.7353 7.2794 50.5663 5.37038C50.4918 5.24845 50.4226 5.12288 50.3464 5.00641C50.2424 4.83394 50.2064 4.62575 50.2459 4.42588C50.2723 4.24406 50.3342 4.06994 50.4278 3.9145C50.5136 3.769 50.6317 3.64749 50.7719 3.56034C50.9122 3.47319 51.0704 3.423 51.2331 3.41404C51.5622 3.3831 59.0457 3.37036 59.8077 3.37946Z" fill="white"/>
<path d="M73.9245 41.0158C73.8342 41.0131 73.7452 40.9915 73.663 40.9521C73.5233 40.8913 73.4099 40.7786 73.3443 40.6355C73.1157 40.1205 72.8784 39.6109 72.6515 39.0977C71.8941 37.4089 71.1384 35.7195 70.3845 34.0294C70.3288 33.911 70.3049 33.7789 70.3152 33.6473C70.3031 33.4121 70.3782 33.1812 70.5248 33.003L73.0222 29.043C73.1278 28.8756 73.2404 28.7118 73.3495 28.5462C73.4632 28.3803 73.633 28.2664 73.824 28.2278C73.9036 28.2082 73.9862 28.2069 74.0663 28.2238C74.1464 28.2408 74.2221 28.2756 74.2882 28.326C74.3775 28.3905 74.4544 28.472 74.5151 28.5662C74.5584 28.6336 74.5982 28.7046 74.6363 28.7755L80.4763 39.6109C80.5266 39.6778 80.5621 39.7556 80.5804 39.8387C80.5987 39.9218 80.5992 40.008 80.5819 40.0914C80.5759 40.1863 80.5602 40.2802 80.5352 40.3716C80.4775 40.5796 80.3436 40.7551 80.1628 40.8593C80.0912 40.9065 80.0098 40.9346 79.9255 40.9412C79.7783 40.9467 74.1341 41.0213 73.9245 41.0158Z" fill="white"/>
<path d="M71.1535 17.1066C71.1535 16.7244 71.1223 16.8591 71.299 16.5388C72.2757 14.7723 73.2543 13.0059 74.2345 11.2394C74.3402 11.0483 74.451 10.8609 74.5601 10.6716C74.5865 10.6223 74.616 10.5749 74.6485 10.5296C74.695 10.4594 74.7561 10.4013 74.8273 10.3597C74.8984 10.318 74.9776 10.294 75.0589 10.2894C75.1784 10.2894 81.0998 10.2894 81.1656 10.2894C81.2867 10.2963 81.4008 10.3516 81.4843 10.4441C81.6216 10.5779 81.7206 10.7494 81.77 10.9391C81.7899 11.0154 81.7946 11.0951 81.7838 11.1734C81.7731 11.2517 81.7472 11.3268 81.7077 11.3941C81.6557 11.4869 81.6003 11.5761 81.5432 11.6652C80.8504 12.7571 80.1576 13.8491 79.4649 14.941C78.0274 17.1709 76.5841 19.3984 75.1351 21.6235C75.0399 21.769 74.9377 21.911 74.8459 22.0584C74.778 22.1632 74.6852 22.2475 74.5768 22.3031C74.4683 22.3586 74.348 22.3834 74.2276 22.3751C74.1318 22.3712 74.0371 22.3515 73.947 22.3168C73.813 22.2731 73.6993 22.1783 73.6284 22.0511C73.5522 21.9165 73.4708 21.7836 73.3963 21.6471C72.8698 20.6547 72.3444 19.6623 71.8203 18.6698C71.628 18.3059 71.441 17.9419 71.2453 17.5779C71.1743 17.4604 71.1415 17.3218 71.1517 17.183C71.1541 17.1576 71.1547 17.1321 71.1535 17.1066Z" fill="white"/>
<path d="M53.9297 25.0011C53.9298 21.6655 52.8091 18.437 50.7653 15.8848C48.7214 13.3326 45.8857 11.6205 42.758 11.0506C39.6303 10.4806 36.4115 11.0892 33.6692 12.7692C30.9268 14.4492 28.837 17.0926 27.7681 20.2334C26.6993 23.3743 26.72 26.8107 27.8268 29.937C28.9335 33.0633 31.0551 35.6786 33.8176 37.3219C36.58 38.9651 39.8059 39.5308 42.9264 38.9191C46.047 38.3074 48.8618 36.5577 50.8746 33.9784L47.2706 31.4033C46.1745 32.693 44.7675 33.648 43.1979 34.1673C41.6283 34.6866 39.9544 34.7511 38.3528 34.354C36.7513 33.9568 35.2814 33.1128 34.0984 31.9109C32.9154 30.7089 32.0631 29.1938 31.6315 27.5252H53.715C53.8587 26.6923 53.9306 25.8475 53.9297 25.0011ZM31.6142 22.5443C32.1308 20.4945 33.278 18.6819 34.8772 17.3886C36.4763 16.0953 38.4376 15.3941 40.4555 15.3941C42.4735 15.3941 44.4347 16.0953 46.0339 17.3886C47.633 18.6819 48.7803 20.4945 49.2969 22.5443H31.6142Z" fill="white"/>
<path d="M121.706 10.7681C119.045 10.7681 116.445 11.5971 114.232 13.1503C112.02 14.7036 110.296 16.9112 109.278 19.4941C108.26 22.077 107.994 24.9191 108.513 27.6611C109.032 30.403 110.313 32.9216 112.195 34.8983C114.076 36.875 116.473 38.2211 119.083 38.7663C121.692 39.3114 124.397 39.0313 126.855 37.9612C129.313 36.891 131.414 35.0791 132.891 32.7544C134.369 30.4297 135.158 27.6967 135.158 24.901C135.158 23.0449 134.81 21.207 134.134 19.4922C133.458 17.7773 132.467 16.2193 131.218 14.9069C129.969 13.5945 128.486 12.5535 126.854 11.8434C125.222 11.1332 123.472 10.7678 121.706 10.7681ZM121.706 34.4862C119.902 34.4862 118.138 33.924 116.638 32.8708C115.138 31.8176 113.969 30.3206 113.278 28.5691C112.588 26.8176 112.407 24.8904 112.759 23.0311C113.111 21.1717 113.98 19.4638 115.256 18.1233C116.532 16.7828 118.157 15.8699 119.926 15.5C121.696 15.1302 123.53 15.32 125.197 16.0455C126.864 16.771 128.288 17.9995 129.291 19.5758C130.293 21.1521 130.828 23.0053 130.828 24.901C130.826 27.4424 129.864 29.879 128.154 31.6761C126.443 33.4731 124.125 34.4838 121.706 34.4862Z" fill="white"/>
<path d="M144.816 51.287V60.5373H141.699V51.287C141.699 50.1058 141.365 48.9512 140.74 47.9693C140.115 46.9873 139.228 46.222 138.189 45.7702C137.15 45.3185 136.007 45.2004 134.905 45.4311C133.802 45.6618 132.79 46.2308 131.995 47.0661C131.2 47.9015 130.659 48.9658 130.44 50.1243C130.221 51.2829 130.333 52.4837 130.764 53.575C131.194 54.6662 131.923 55.5989 132.857 56.2552C133.792 56.9114 134.891 57.2616 136.015 57.2616H140.902V60.5373H136.015C134.281 60.5377 132.585 60 131.141 58.9916C129.697 57.9832 128.568 56.549 127.897 54.8691C127.225 53.1891 127.041 51.3382 127.367 49.5486C127.693 47.7589 128.514 46.1103 129.728 44.8095C130.943 43.5087 132.496 42.6137 134.192 42.2368C135.889 41.8599 137.653 42.0179 139.265 42.6909C140.876 43.3639 142.263 44.5221 143.25 46.0199C144.237 47.5178 144.782 49.2888 144.815 51.1105C144.816 51.1688 144.816 51.2288 144.816 51.287Z" fill="white"/>
<path d="M117.565 57.2361C117.392 57.2525 117.219 57.2616 117.045 57.2616C116.872 57.2616 116.699 57.2616 116.526 57.2361H117.565Z" fill="white"/>
<path d="M117.565 57.2361C117.392 57.2525 117.219 57.2616 117.045 57.2616C116.872 57.2616 116.699 57.2616 116.526 57.2361H117.565Z" fill="white"/>
<path d="M125.845 51.2926C125.845 53.647 124.99 55.9128 123.455 57.6275C121.919 59.3422 119.819 60.3764 117.582 60.5192C117.409 60.5319 117.236 60.5374 117.047 60.5374H112.227V57.2362H116.529C116.703 57.2526 116.876 57.2617 117.049 57.2617C117.222 57.2617 117.395 57.2617 117.568 57.2362C118.665 57.129 119.708 56.6892 120.571 55.9705C121.434 55.2518 122.079 54.2851 122.429 53.188C122.778 52.0909 122.817 50.9106 122.54 49.7909C122.263 48.6711 121.682 47.6601 120.868 46.8808C120.054 46.1015 119.043 45.5875 117.956 45.4014C116.869 45.2153 115.754 45.3651 114.747 45.8325C113.74 46.2999 112.884 47.0648 112.282 48.0342C111.681 49.0035 111.361 50.1356 111.361 51.2926V68.3009H108.244V51.6256C108.244 51.5164 108.244 51.4036 108.244 51.2926C108.244 48.8407 109.171 46.4892 110.821 44.7555C112.471 43.0217 114.709 42.0477 117.042 42.0477C119.375 42.0477 121.613 43.0217 123.263 44.7555C124.913 46.4892 125.84 48.8407 125.84 51.2926H125.845Z" fill="white"/>
<path d="M117.565 57.2361C117.392 57.2525 117.219 57.2616 117.045 57.2616C116.872 57.2616 116.699 57.2616 116.526 57.2361H117.565Z" fill="white"/>
<path d="M117.582 60.5192V60.5375H117.047C117.227 60.5375 117.406 60.532 117.582 60.5192Z" fill="white"/>
<path d="M162.071 42.0477H158.954V68.3009H162.071V42.0477Z" fill="white"/>
<path d="M158.152 57.2435V60.5192H154.259C152.187 60.5192 150.199 59.6544 148.734 58.1149C147.268 56.5754 146.445 54.4873 146.444 52.3099V42.0477H149.562V52.3099C149.564 53.6181 150.059 54.8721 150.94 55.797C151.82 56.7218 153.014 57.242 154.259 57.2435H158.152Z" fill="white"/>
</svg>
