<svg width="185" height="75" viewBox="0 0 185 75" fill="none" xmlns="http://www.w3.org/2000/svg">
<path d="M0.5 42.5013V25.5705C0.5 21.432 1.78236 18.0987 4.34709 15.5704C6.91182 13.0422 10.3428 11.7774 14.6401 11.7761C18.9374 11.7761 22.3788 13.0303 24.9645 15.5389C27.5502 18.0474 28.8431 21.3913 28.8431 25.5705V42.5013H23.3997V25.5094C23.3997 22.9168 22.6069 20.8055 21.0211 19.1756C19.4354 17.5457 17.3503 16.7301 14.7659 16.7288C12.1383 16.7288 10.0001 17.5339 8.35145 19.1441C6.70279 20.7543 5.87912 22.8761 5.88043 25.5094V42.5013H0.5Z" fill="#00CF79"/>
<path d="M156.157 42.5013V25.5705C156.157 21.4307 157.439 18.0974 160.004 15.5704C162.569 13.0435 166 11.7787 170.297 11.7761C174.593 11.7761 178.034 13.0303 180.621 15.5389C183.208 18.0474 184.501 21.3913 184.5 25.5705V42.5013H179.057V25.5094C179.057 22.9168 178.264 20.8055 176.678 19.1756C175.092 17.5457 173.007 16.7301 170.421 16.7288C167.793 16.7288 165.656 17.5339 164.008 19.1441C162.361 20.7543 161.537 22.8761 161.537 25.5094V42.5013H156.157Z" fill="black"/>
<path d="M97.9787 42.5012V1.33469H103.542V10.8009H110.076L109.213 15.923H103.542V42.5012H97.9787Z" fill="black"/>
<path d="M113.322 4.30359C113.312 3.75154 113.416 3.20341 113.626 2.69309C113.837 2.18277 114.149 1.72111 114.545 1.33667C115.331 0.550727 116.396 0.109344 117.506 0.109344C118.617 0.109344 119.682 0.550727 120.468 1.33667C120.863 1.72139 121.175 2.1831 121.385 2.69336C121.596 3.20361 121.699 3.7516 121.69 4.30359C121.694 4.84459 121.587 5.38066 121.377 5.87896C121.167 6.37726 120.857 6.82731 120.468 7.20156C119.681 7.98654 118.616 8.42726 117.506 8.42726C116.396 8.42726 115.331 7.98654 114.545 7.20156C114.154 6.8276 113.845 6.3776 113.634 5.87923C113.424 5.38087 113.318 4.84466 113.322 4.30359ZM114.672 42.5013V11.3998H120.218V42.5013H114.672Z" fill="black"/>
<path d="M68.3854 3.76773C68.6991 3.76932 69.0123 3.79169 69.3231 3.83472C69.4218 3.8449 69.5172 3.87577 69.6033 3.92532C69.6893 3.97488 69.7639 4.042 69.8224 4.12235C69.8932 4.22282 69.9659 4.31935 70.0288 4.42574C70.4632 5.17633 70.8997 5.92496 71.3302 6.67752C73.9106 11.1811 76.4839 15.6847 79.0499 20.1883C80.2831 22.3448 81.5105 24.5047 82.7319 26.6678C82.783 26.7584 82.8341 26.8471 82.8813 26.9377C83.0185 27.1924 83.0649 27.4863 83.013 27.7711C82.9925 27.8922 82.9455 28.0072 82.8754 28.1079C82.5825 28.5453 82.2856 28.9846 81.9986 29.42C79.1272 33.6136 76.2532 37.8079 73.3766 42.0028C72.0451 43.9453 70.7103 45.8852 69.3722 47.8224C69.2523 47.9977 69.1304 48.1691 69.0066 48.3405C68.953 48.4097 68.8953 48.4755 68.8336 48.5375C68.7362 48.6464 68.6029 48.7164 68.4581 48.7346C68.2092 48.7709 67.9585 48.7945 67.7072 48.8055C66.2898 48.8193 60.0995 48.8232 59.0989 48.8055C58.8138 48.8055 58.5288 48.7641 58.2438 48.7346C58.0721 48.7171 57.914 48.6329 57.8034 48.5001C57.7674 48.4588 57.7294 48.4193 57.6894 48.3819C57.5569 48.248 57.4584 48.0842 57.4019 47.9042C57.3455 47.7243 57.3328 47.5335 57.365 47.3476C57.3818 47.1771 57.4458 47.0147 57.5498 46.8787C58.2536 45.9292 58.9475 44.9737 59.6532 44.0261C62.6177 40.0413 65.5848 36.0558 68.5544 32.0697C69.441 30.8759 70.3237 29.6741 71.2004 28.4763C71.3046 28.3325 71.397 28.1848 71.5071 28.041C71.567 27.9659 71.6032 27.8747 71.6113 27.7789C71.6201 27.6359 71.6201 27.4925 71.6113 27.3495C71.5973 27.2338 71.5547 27.1234 71.4874 27.0283C71.108 26.4373 70.7345 25.8463 70.3532 25.2553C67.5303 20.8804 64.7047 16.5042 61.8766 12.1267C60.5438 10.0621 59.2227 7.98959 57.8958 5.92299C57.8113 5.79099 57.7327 5.65506 57.6462 5.52897C57.5282 5.34227 57.4873 5.1169 57.5321 4.90052C57.5621 4.70369 57.6324 4.5152 57.7385 4.34693C57.836 4.18942 57.97 4.05788 58.1292 3.96354C58.2884 3.8692 58.468 3.81486 58.6527 3.80516C59.0262 3.77167 67.5204 3.75788 68.3854 3.76773Z" fill="#00CF79"/>
<path d="M84.4087 44.5107C84.3062 44.5078 84.2052 44.4843 84.1119 44.4418C83.9533 44.376 83.8246 44.2539 83.7502 44.099C83.4907 43.5415 83.2214 42.9898 82.9638 42.4343C82.1041 40.6061 81.2464 38.7772 80.3906 36.9476C80.3274 36.8194 80.3002 36.6764 80.312 36.5339C80.2982 36.2794 80.3835 36.0294 80.5498 35.8365L83.3845 31.5496C83.5044 31.3684 83.6322 31.1911 83.7561 31.0118C83.8851 30.8322 84.0778 30.7088 84.2947 30.6671C84.385 30.6459 84.4788 30.6445 84.5697 30.6628C84.6606 30.6812 84.7465 30.7189 84.8215 30.7734C84.9228 30.8432 85.0102 30.9314 85.0791 31.0335C85.1282 31.1064 85.1734 31.1832 85.2167 31.26L91.8454 42.9898C91.9025 43.0623 91.9428 43.1465 91.9636 43.2364C91.9843 43.3263 91.9849 43.4197 91.9653 43.5099C91.9585 43.6127 91.9407 43.7144 91.9122 43.8133C91.8468 44.0385 91.6947 44.2284 91.4896 44.3413C91.4083 44.3924 91.3159 44.4228 91.2202 44.43C91.0532 44.4359 84.6466 44.5166 84.4087 44.5107Z" fill="black"/>
<path d="M81.2634 18.628C81.2634 18.2142 81.228 18.36 81.4286 18.0133C82.5373 16.101 83.648 14.1887 84.7606 12.2765C84.8805 12.0696 85.0063 11.8667 85.1302 11.6618C85.1602 11.6084 85.1936 11.5571 85.2304 11.5081C85.2832 11.4321 85.3526 11.3692 85.4334 11.3241C85.5141 11.2791 85.6041 11.2531 85.6963 11.2481C85.832 11.2481 92.5531 11.2481 92.6278 11.2481C92.7653 11.2555 92.8947 11.3154 92.9895 11.4155C93.1453 11.5604 93.2577 11.746 93.3139 11.9514C93.3364 12.034 93.3417 12.1203 93.3295 12.205C93.3174 12.2897 93.2879 12.3711 93.2431 12.4439C93.1841 12.5444 93.1212 12.6409 93.0563 12.7374C92.27 13.9195 91.4837 15.1015 90.6974 16.2836C89.0657 18.6976 87.4276 21.1089 85.7828 23.5177C85.6747 23.6753 85.5587 23.8289 85.4545 23.9885C85.3775 24.1019 85.2722 24.1932 85.1491 24.2534C85.026 24.3135 84.8894 24.3404 84.7527 24.3313C84.644 24.3271 84.5365 24.3058 84.4343 24.2683C84.2821 24.2209 84.1531 24.1183 84.0726 23.9806C83.9861 23.8348 83.8937 23.691 83.8092 23.5433C83.2115 22.4689 82.6152 21.3946 82.0203 20.3202C81.8021 19.9262 81.5897 19.5322 81.3676 19.1382C81.2871 19.0109 81.2498 18.861 81.2615 18.7107C81.2642 18.6832 81.2648 18.6555 81.2634 18.628Z" fill="black"/>
<path d="M61.7134 27.1741C61.7135 23.5632 60.4415 20.0682 58.1216 17.3053C55.8017 14.5424 52.5829 12.6891 49.0328 12.0721C45.4827 11.4551 41.8292 12.114 38.7165 13.9326C35.6037 15.7513 33.2316 18.6129 32.0184 22.013C30.8052 25.413 30.8288 29.1332 32.085 32.5175C33.3412 35.9019 35.7494 38.7331 38.8849 40.512C42.0205 42.2908 45.682 42.9032 49.224 42.241C52.7661 41.5788 55.9611 39.6847 58.2457 36.8925L54.1549 34.1048C52.9108 35.501 51.3137 36.5348 49.5321 37.097C47.7506 37.6592 45.8506 37.729 44.0327 37.2991C42.2149 36.8692 40.5465 35.9554 39.2037 34.6543C37.8609 33.3532 36.8935 31.7129 36.4036 29.9066H61.4697C61.6328 29.005 61.7144 28.0904 61.7134 27.1741ZM36.3839 24.5145C36.9703 22.2956 38.2725 20.3333 40.0876 18.9333C41.9028 17.5333 44.1289 16.7741 46.4194 16.7741C48.7099 16.7741 50.936 17.5333 52.7512 18.9333C54.5663 20.3333 55.8685 22.2956 56.4549 24.5145H36.3839Z" fill="#00CF79"/>
<path d="M138.643 11.7662C135.624 11.7662 132.672 12.6637 130.161 14.3451C127.65 16.0266 125.693 18.4164 124.537 21.2125C123.382 24.0086 123.079 27.0854 123.669 30.0536C124.258 33.0219 125.712 35.7484 127.848 37.8882C129.983 40.0281 132.704 41.4853 135.666 42.0755C138.628 42.6657 141.698 42.3624 144.488 41.2039C147.278 40.0455 149.662 38.084 151.34 35.5674C153.017 33.0508 153.912 30.0922 153.912 27.0658C153.912 25.0564 153.517 23.0668 152.75 21.2104C151.982 19.3541 150.858 17.6674 149.44 16.2466C148.022 14.8259 146.339 13.699 144.486 12.9302C142.634 12.1615 140.648 11.7659 138.643 11.7662ZM138.643 37.4421C136.596 37.4421 134.594 36.8335 132.891 35.6934C131.188 34.5532 129.861 32.9326 129.078 31.0366C128.294 29.1406 128.089 27.0542 128.489 25.0414C128.888 23.0286 129.874 21.1797 131.322 19.7286C132.77 18.2774 134.615 17.2892 136.624 16.8888C138.632 16.4884 140.714 16.6939 142.606 17.4793C144.498 18.2646 146.115 19.5946 147.252 21.301C148.39 23.0073 148.997 25.0135 148.997 27.0658C148.995 29.8169 147.903 32.4547 145.962 34.4001C144.021 36.3454 141.389 37.4395 138.643 37.4421Z" fill="black"/>
<path d="M164.875 55.6298V65.6437H161.337V55.6298C161.336 54.3511 160.958 53.1012 160.249 52.0381C159.539 50.9751 158.532 50.1467 157.353 49.6576C156.174 49.1685 154.877 49.0408 153.625 49.2905C152.374 49.5402 151.224 50.1561 150.322 51.0605C149.42 51.9648 148.806 53.1169 148.557 54.3711C148.308 55.6253 148.436 56.9252 148.925 58.1066C149.413 59.2879 150.24 60.2976 151.301 61.008C152.362 61.7184 153.609 62.0975 154.885 62.0975H160.433V65.6437H154.885C152.917 65.6441 150.992 65.0619 149.353 63.9703C147.714 62.8786 146.432 61.3261 145.67 59.5075C144.908 57.6889 144.699 55.6852 145.069 53.7478C145.439 51.8105 146.371 50.0257 147.75 48.6176C149.128 47.2094 150.89 46.2405 152.816 45.8325C154.742 45.4245 156.745 45.5955 158.574 46.3241C160.403 47.0527 161.976 48.3064 163.097 49.9279C164.218 51.5494 164.836 53.4666 164.873 55.4387C164.875 55.5017 164.875 55.5668 164.875 55.6298Z" fill="#00CF79"/>
<path d="M133.943 62.0699C133.747 62.0877 133.55 62.0975 133.354 62.0975C133.157 62.0975 132.96 62.0975 132.764 62.0699H133.943Z" fill="#00CF79"/>
<path d="M133.943 62.0699C133.747 62.0877 133.55 62.0975 133.354 62.0975C133.157 62.0975 132.96 62.0975 132.764 62.0699H133.943Z" fill="#00CF79"/>
<path d="M143.342 55.6357C143.342 58.1845 142.372 60.6373 140.629 62.4935C138.886 64.3497 136.502 65.4694 133.963 65.6239C133.766 65.6377 133.57 65.6436 133.355 65.6436H127.885V62.0699H132.768C132.964 62.0877 133.161 62.0975 133.357 62.0975C133.554 62.0975 133.751 62.0975 133.947 62.0699C135.192 61.9539 136.376 61.4778 137.355 60.6998C138.334 59.9218 139.067 58.8753 139.464 57.6876C139.861 56.4999 139.904 55.2222 139.59 54.0101C139.276 52.7979 138.616 51.7034 137.693 50.8598C136.769 50.0161 135.62 49.4597 134.387 49.2583C133.153 49.0568 131.888 49.2189 130.745 49.7249C129.601 50.2309 128.63 51.0589 127.947 52.1083C127.265 53.1577 126.902 54.3832 126.902 55.6357V74.048H123.363V55.9962C123.363 55.878 123.363 55.7559 123.363 55.6357C123.363 52.9814 124.415 50.4359 126.288 48.559C128.161 46.6822 130.701 45.6277 133.35 45.6277C135.998 45.6277 138.538 46.6822 140.411 48.559C142.284 50.4359 143.336 52.9814 143.336 55.6357H143.342Z" fill="#00CF79"/>
<path d="M133.943 62.0699C133.747 62.0877 133.55 62.0975 133.354 62.0975C133.157 62.0975 132.96 62.0975 132.764 62.0699H133.943Z" fill="#00CF79"/>
<path d="M133.963 65.6239V65.6436H133.355C133.56 65.6436 133.762 65.6377 133.963 65.6239Z" fill="#00CF79"/>
<path d="M184.461 45.6277H180.922V74.048H184.461V45.6277Z" fill="#00CF79"/>
<path d="M180.012 62.0778V65.6239H175.593C173.241 65.6239 170.985 64.6877 169.322 63.0211C167.658 61.3546 166.724 59.0941 166.723 56.737V45.6277H170.262V56.737C170.264 58.1531 170.826 59.5107 171.826 60.5119C172.825 61.5131 174.18 62.0763 175.593 62.0778H180.012Z" fill="#00CF79"/>
</svg>
