<svg width="51" height="63" viewBox="0 0 51 63" fill="none" xmlns="http://www.w3.org/2000/svg">
<path d="M15.8334 0.00271606C16.2693 0.00355038 16.7047 0.034848 17.1364 0.0963841C17.2735 0.109618 17.4062 0.152073 17.5258 0.220939C17.6454 0.289804 17.7492 0.38351 17.8302 0.495851C17.9285 0.636353 18.0296 0.771345 18.117 0.922867C18.7207 1.96974 19.3271 3.01662 19.9254 4.06901C23.5038 10.3668 27.0795 16.6655 30.6525 22.9652C32.3662 25.9809 34.0716 29.0012 35.7689 32.0262C35.8399 32.1501 35.9109 32.2741 35.9765 32.4008C36.1671 32.757 36.2317 33.168 36.1595 33.5662C36.1311 33.7364 36.0658 33.8982 35.9683 34.04C35.5613 34.6489 35.1488 35.266 34.75 35.8721C30.76 41.7493 26.7663 47.6155 22.769 53.4706C20.9188 56.1852 19.064 58.8979 17.2046 61.6087C17.038 61.8512 16.8687 62.0936 16.6966 62.3333C16.6215 62.4295 16.5412 62.5214 16.4562 62.6088C16.3201 62.76 16.1352 62.8576 15.9344 62.8843C15.5884 62.9341 15.2402 62.9663 14.8909 62.9807C12.9214 63 4.31948 63.0055 2.92907 62.9807C2.53298 62.9807 2.1369 62.9201 1.74081 62.8815C1.50197 62.8558 1.28248 62.7372 1.12892 62.5509C1.07975 62.4931 1.02512 62.4407 0.970485 62.3856C0.786392 62.1983 0.649419 61.9692 0.571009 61.7176C0.492599 61.466 0.475028 61.1991 0.519764 60.9393C0.544493 60.7037 0.633363 60.4796 0.776538 60.2919C1.75447 58.964 2.71874 57.6306 3.6994 56.3055C7.81872 50.7276 11.9435 45.1544 16.0737 39.5857C17.3066 37.9162 18.5322 36.2403 19.7505 34.5579C19.8953 34.3596 20.0237 34.1502 20.1767 33.9519C20.2595 33.8456 20.3098 33.7173 20.3214 33.5827C20.3337 33.3836 20.3337 33.184 20.3214 32.9849C20.3029 32.8229 20.2437 32.6683 20.1494 32.5358C19.6221 31.7093 19.1031 30.8829 18.5732 30.0564C14.6469 23.9349 10.7179 17.8171 6.78615 11.703C4.93683 8.81853 3.10117 5.92033 1.25731 3.03315C1.13985 2.84857 1.03058 2.65572 0.910389 2.48216C0.746548 2.22001 0.689764 1.90405 0.751953 1.60058C0.796859 1.32535 0.898275 1.06261 1.0497 0.829199C1.18278 0.607273 1.36699 0.421016 1.5867 0.286243C1.80641 0.15147 2.05512 0.0721644 2.31172 0.05506C2.828 0.00271606 14.6314 0.00271606 15.8334 0.00271606Z" fill="#00CF79"/>
<path d="M38.0988 56.9804C37.9561 56.9776 37.8156 56.9447 37.6863 56.884C37.466 56.7919 37.2871 56.6213 37.1837 56.4046C36.8231 55.6277 36.4489 54.8563 36.091 54.0767C34.8982 51.5201 33.7063 48.9635 32.5153 46.4069C32.4275 46.2277 32.3897 46.0277 32.406 45.8284C32.3869 45.4724 32.5054 45.1229 32.7366 44.8532C34.0478 42.8531 35.3608 40.8548 36.6756 38.8584C36.8422 38.6022 37.0198 38.3542 37.1919 38.1035C37.372 37.8532 37.6394 37.6809 37.9404 37.6214C38.0659 37.5926 38.196 37.5909 38.3222 37.6166C38.4484 37.6422 38.5678 37.6946 38.6724 37.7702C38.812 37.8692 38.9332 37.9923 39.0303 38.1339C39.0986 38.2385 39.1614 38.3432 39.2215 38.4507L48.4326 54.8536C48.512 54.9554 48.5681 55.0736 48.5969 55.1998C48.6257 55.326 48.6265 55.4571 48.5992 55.5837C48.5897 55.7264 48.565 55.8677 48.5255 56.0052C48.4809 56.1616 48.406 56.3077 48.3052 56.4349C48.2044 56.5621 48.0797 56.6679 47.9382 56.7462C47.8245 56.816 47.6965 56.8584 47.5639 56.8702C47.3317 56.884 38.4293 56.9914 38.0988 56.9804Z" fill="black"/>
<path d="M33.7284 20.7722C33.7284 20.1937 33.6793 20.3975 33.9579 19.9127C35.4985 17.2385 37.0419 14.5644 38.588 11.8903C38.7547 11.6148 38.9295 11.3173 39.1016 11.0335C39.1432 10.9579 39.1898 10.8852 39.2409 10.8159C39.3147 10.71 39.4113 10.6223 39.5234 10.5594C39.6355 10.4964 39.7602 10.4598 39.8883 10.4522C40.0768 10.4522 49.4163 10.4522 49.5201 10.4522C49.7115 10.4612 49.8918 10.5452 50.0227 10.6864C50.2392 10.8879 50.3953 11.1465 50.4734 11.433C50.5049 11.5484 50.5124 11.6692 50.4954 11.7877C50.4785 11.9062 50.4376 12.0199 50.3751 12.1217C50.2931 12.2622 50.2057 12.3972 50.1156 12.5322C49.0229 14.1852 47.9303 15.8381 46.8376 17.4911C44.5703 20.8686 42.294 24.2416 40.0085 27.61C39.8583 27.8304 39.6971 28.0425 39.5523 28.2657C39.4464 28.4255 39.3003 28.5541 39.129 28.6383C38.9576 28.7225 38.7672 28.7594 38.5771 28.745C38.4262 28.7387 38.2771 28.71 38.1346 28.6596C37.9241 28.5931 37.7458 28.4496 37.6347 28.2574C37.5118 28.0508 37.3834 27.8524 37.2687 27.643C36.4328 26.1444 35.6042 24.6448 34.7829 23.1442C34.4796 22.5932 34.1846 22.0422 33.876 21.4913C33.7644 21.3131 33.7127 21.1035 33.7284 20.8934C33.7314 20.8531 33.7314 20.8126 33.7284 20.7722Z" fill="black"/>
</svg>
