<svg width="51" height="63" viewBox="0 0 51 63" fill="none" xmlns="http://www.w3.org/2000/svg">
<path d="M15.8338 0C16.2698 0.00083432 16.7052 0.0321319 17.1368 0.093668C17.2739 0.106902 17.4067 0.149357 17.5263 0.218222C17.6459 0.287088 17.7497 0.380794 17.8307 0.493135C17.929 0.633637 18.0301 0.768629 18.1175 0.92015C18.7212 1.96703 19.3276 3.01391 19.9258 4.06629C23.5043 10.3641 27.08 16.6628 30.653 22.9624C32.3667 25.9782 34.0721 28.9985 35.7694 32.0234C35.8404 32.1474 35.9114 32.2714 35.977 32.3981C36.1676 32.7543 36.2322 33.1653 36.16 33.5635C36.1316 33.7337 36.0663 33.8955 35.9688 34.0373C35.5618 34.6461 35.1493 35.2633 34.7505 35.8693C30.7605 41.7465 26.7668 47.6127 22.7695 53.4679C20.9193 56.1824 19.0645 58.8951 17.2051 61.606C17.0385 61.8484 16.8691 62.0909 16.697 62.3306C16.622 62.4268 16.5417 62.5187 16.4567 62.606C16.3206 62.7573 16.1357 62.8549 15.9349 62.8815C15.5889 62.9314 15.2406 62.9636 14.8914 62.978C12.9219 62.9972 4.31997 63.0028 2.92956 62.978C2.53347 62.978 2.13739 62.9174 1.7413 62.8788C1.50246 62.8531 1.28297 62.7345 1.12941 62.5482C1.08024 62.4903 1.02561 62.438 0.970973 62.3829C0.78688 62.1956 0.649908 61.9665 0.571498 61.7149C0.493087 61.4633 0.475516 61.1964 0.520252 60.9366C0.544981 60.701 0.633851 60.4769 0.777026 60.2891C1.75495 58.9613 2.71922 57.6279 3.69988 56.3027C7.8192 50.7249 11.944 45.1517 16.0742 39.583C17.3071 37.9135 18.5327 36.2376 19.751 34.5552C19.8958 34.3569 20.0242 34.1475 20.1772 33.9491C20.26 33.8429 20.3103 33.7146 20.3219 33.58C20.3342 33.3809 20.3342 33.1812 20.3219 32.9822C20.3034 32.8201 20.2441 32.6656 20.1498 32.5331C19.6226 31.7066 19.1036 30.8801 18.5737 30.0537C14.6474 23.9322 10.7184 17.8144 6.78664 11.7002C4.93732 8.81581 3.10166 5.91761 1.2578 3.03044C1.14033 2.84585 1.03107 2.65301 0.910877 2.47945C0.747036 2.2173 0.690252 1.90133 0.752442 1.59787C0.797348 1.32263 0.898763 1.05989 1.05019 0.826482C1.18326 0.604557 1.36748 0.4183 1.58719 0.283527C1.8069 0.148754 2.05561 0.0694484 2.31221 0.0523439C2.82849 0 14.6319 0 15.8338 0Z" fill="#00CF79"/>
<path d="M38.0998 56.9776C37.9571 56.9748 37.8166 56.942 37.6873 56.8812C37.467 56.7892 37.2881 56.6185 37.1847 56.4018C36.8241 55.625 36.4498 54.8536 36.092 54.0739C34.8992 51.5173 33.7073 48.9607 32.5163 46.4042C32.4285 46.2249 32.3907 46.0249 32.407 45.8256C32.3879 45.4697 32.5064 45.1201 32.7375 44.8504C34.0487 42.8503 35.3617 40.852 36.6766 38.8556C36.8432 38.5994 37.0208 38.3515 37.1929 38.1008C37.3729 37.8504 37.6404 37.6781 37.9413 37.6187C38.0668 37.5898 38.197 37.5881 38.3232 37.6138C38.4494 37.6394 38.5688 37.6918 38.6734 37.7674C38.813 37.8664 38.9342 37.9895 39.0313 38.1311C39.0995 38.2358 39.1624 38.3404 39.2225 38.4479L48.4336 54.8508C48.513 54.9526 48.5691 55.0708 48.5979 55.197C48.6267 55.3232 48.6275 55.4543 48.6002 55.5809C48.5907 55.7236 48.566 55.865 48.5264 56.0024C48.4819 56.1589 48.407 56.3049 48.3062 56.4321C48.2054 56.5593 48.0807 56.6651 47.9391 56.7435C47.8255 56.8132 47.6974 56.8556 47.5649 56.8674C47.3327 56.8812 38.4303 56.9887 38.0998 56.9776Z" fill="white"/>
<path d="M33.7289 20.7695C33.7289 20.1909 33.6798 20.3948 33.9584 19.9099C35.499 17.2358 37.0424 14.5617 38.5885 11.8875C38.7552 11.612 38.93 11.3145 39.1021 11.0308C39.1437 10.9552 39.1902 10.8825 39.2414 10.8131C39.3152 10.7073 39.4117 10.6196 39.5238 10.5566C39.6359 10.4936 39.7607 10.457 39.8888 10.4495C40.0773 10.4495 49.4168 10.4495 49.5206 10.4495C49.712 10.4584 49.8923 10.5425 50.0232 10.6836C50.2396 10.8851 50.3958 11.1438 50.4739 11.4302C50.5054 11.5457 50.5129 11.6664 50.4959 11.7849C50.479 11.9034 50.438 12.0171 50.3756 12.119C50.2936 12.2595 50.2062 12.3945 50.1161 12.5294C49.0234 14.1824 47.9307 15.8354 46.8381 17.4883C44.5708 20.8659 42.2945 24.2389 40.009 27.6072C39.8587 27.8276 39.6976 28.0398 39.5528 28.2629C39.4469 28.4228 39.3008 28.5514 39.1295 28.6356C38.9581 28.7198 38.7677 28.7566 38.5776 28.7423C38.4267 28.736 38.2776 28.7072 38.1351 28.6569C37.9246 28.5903 37.7463 28.4469 37.6352 28.2547C37.5123 28.048 37.3839 27.8497 37.2691 27.6403C36.4333 26.1416 35.6047 24.642 34.7833 23.1415C34.4801 22.5905 34.1851 22.0395 33.8764 21.4885C33.7649 21.3104 33.7132 21.1008 33.7289 20.8907C33.7319 20.8503 33.7319 20.8098 33.7289 20.7695Z" fill="white"/>
</svg>
