<svg width="36" height="35" viewBox="0 0 36 35" fill="none" xmlns="http://www.w3.org/2000/svg">
<rect x="0.42157" width="35" height="35" rx="10" fill="url(#paint0_linear_321_7685)"/>
<path d="M20.9675 11.999H14.6825V23.2894H20.9675V11.999Z" fill="#FF5F00"/>
<path d="M15.0778 17.647C15.0778 15.3548 16.154 13.3169 17.8096 11.9987C16.5931 11.0433 15.0587 10.4639 13.3777 10.4639C9.41035 10.4639 6.19452 13.6733 6.19452 17.647C6.19452 21.6144 9.40399 24.8302 13.3777 24.8302C15.0523 24.8302 16.5872 24.2508 17.8096 23.2954C16.154 21.9963 15.0778 19.9397 15.0778 17.647Z" fill="#EB001B"/>
<path d="M29.4438 17.647C29.4438 21.6144 26.2343 24.8302 22.2606 24.8302C20.5859 24.8302 19.0511 24.2508 17.8287 23.2954C19.5034 21.9772 20.5605 19.9461 20.5605 17.647C20.5605 15.3548 19.4843 13.3169 17.8287 11.9987C19.0452 11.0433 20.5796 10.4639 22.2606 10.4639C26.2343 10.4643 29.4438 13.6929 29.4438 17.647Z" fill="#F79E1B"/>
<defs>
<linearGradient id="paint0_linear_321_7685" x1="42.6789" y1="29.3243" x2="7.07384" y2="30.8742" gradientUnits="userSpaceOnUse">
<stop stop-color="#3D4957"/>
<stop offset="1" stop-color="#2C3D4C"/>
</linearGradient>
</defs>
</svg>
