<svg width="35" height="35" viewBox="0 0 35 35" fill="none" xmlns="http://www.w3.org/2000/svg">
<rect width="35" height="35" rx="10" fill="url(#paint0_linear_1594_10857)"/>
<path d="M17.5091 11.028C17.6738 11.0275 17.8369 11.0597 17.989 11.1227C18.1411 11.1857 18.2792 11.2783 18.3952 11.3951L19.9225 12.92C19.6748 13.0629 19.447 13.2378 19.2449 13.4401L17.4155 15.272L15.6045 13.461C15.4331 13.2814 15.2403 13.1235 15.0303 12.9911L16.6204 11.3951C16.737 11.2782 16.8755 11.1856 17.028 11.1226C17.1806 11.0596 17.3441 11.0274 17.5091 11.028ZM22.2116 15.2132L23.6229 16.6245C23.8574 16.8595 23.9892 17.178 23.9892 17.51C23.9892 17.842 23.8574 18.1605 23.6229 18.3955L22.2116 19.8053H21.5302C21.3943 19.8038 21.2643 19.7495 21.1675 19.654L19.0205 17.5071L21.1646 15.363C21.2628 15.2681 21.3937 15.2144 21.5302 15.2132H22.2116ZM13.3065 15.2191C13.3544 15.2191 13.4983 15.2191 13.686 15.3871L15.8089 17.51L13.6854 19.6299C13.4975 19.7979 13.3535 19.7979 13.3057 19.7979H12.7976L11.3945 18.3949C11.2783 18.2788 11.186 18.1408 11.1231 17.989C11.0601 17.8371 11.0277 17.6744 11.0277 17.51C11.0277 17.3456 11.0601 17.1829 11.1231 17.031C11.186 16.8792 11.2783 16.7412 11.3945 16.6251L12.7973 15.2203H13.3065M17.4155 19.7495L19.2452 21.5793C19.4467 21.7812 19.6738 21.9558 19.9207 22.0985L18.4014 23.6178C18.1605 23.8454 17.8416 23.9722 17.5102 23.9722C17.1787 23.9722 16.8599 23.8454 16.6189 23.6178L15.0247 22.0254C15.2311 21.8956 15.4222 21.743 15.5945 21.5704L17.4155 19.7495ZM17.5091 10C17.2092 9.99966 16.912 10.0585 16.6348 10.1732C16.3576 10.2879 16.1058 10.4562 15.8938 10.6685L13.0334 13.5303H13.3065C13.894 13.5303 14.4491 13.733 14.8661 14.1765L17.1188 16.4292C17.1554 16.4677 17.1994 16.4983 17.2482 16.5193C17.2969 16.5403 17.3494 16.5512 17.4025 16.5513C17.5161 16.5488 17.6249 16.5054 17.7092 16.4292L19.9707 14.1677C20.1751 13.9623 20.4181 13.7994 20.6858 13.6885C20.9535 13.5776 21.2405 13.5208 21.5302 13.5215H21.9767L19.1219 10.6685C18.9104 10.4562 18.659 10.2879 18.3823 10.1732C18.1055 10.0585 17.8088 9.99961 17.5091 10ZM22.6375 14.1853H21.5302C21.1222 14.1869 20.7311 14.3482 20.4406 14.6346L18.1791 16.8962C17.9676 17.0812 17.6915 17.2134 17.4155 17.2134C17.1394 17.2134 16.8604 17.0812 16.6489 16.8962L14.3962 14.6435C14.0849 14.3556 13.7119 14.1911 13.3065 14.1911H12.372L10.6685 15.8976C10.4566 16.1092 10.2885 16.3606 10.1737 16.6372C10.059 16.9139 10 17.2105 10 17.51C10 17.8095 10.059 18.1061 10.1737 18.3828C10.2885 18.6594 10.4566 18.9108 10.6685 19.1224L12.372 20.8259H13.3065C13.7119 20.8259 14.0849 20.6614 14.3962 20.3736L16.6489 18.1238C16.8544 17.9263 17.1283 17.8157 17.4134 17.8152C17.6985 17.8146 17.9728 17.9241 18.1791 18.1209L20.4406 20.3824C20.73 20.6709 21.1216 20.8334 21.5302 20.8347H22.6375L24.3498 19.1224C24.7771 18.6946 25.0172 18.1147 25.0172 17.51C25.0172 16.9053 24.7771 16.3254 24.3498 15.8976L22.6375 14.1853ZM17.4155 18.4733C17.3607 18.4724 17.3063 18.4824 17.2554 18.5025C17.2045 18.5227 17.1581 18.5527 17.1188 18.5908L14.8661 20.8435C14.6617 21.0489 14.4187 21.2118 14.151 21.3227C13.8833 21.4336 13.5963 21.4903 13.3065 21.4897H13.0334L15.897 24.3503C16.3303 24.7672 16.9082 25 17.5094 25C18.1107 25 18.6886 24.7672 19.1219 24.3503L21.9737 21.4985H21.5302C21.2405 21.4991 20.9535 21.4424 20.6858 21.3315C20.4181 21.2206 20.1751 21.0577 19.9707 20.8523L17.7092 18.5908C17.6305 18.5146 17.525 18.4724 17.4155 18.4733Z" fill="white"/>
<defs>
<linearGradient id="paint0_linear_1594_10857" x1="42.2574" y1="29.3243" x2="6.65227" y2="30.8742" gradientUnits="userSpaceOnUse">
<stop stop-color="#12794E"/>
<stop offset="1" stop-color="#00CF79"/>
</linearGradient>
</defs>
</svg>
