<svg width="125" height="50" viewBox="0 0 125 50" fill="none" xmlns="http://www.w3.org/2000/svg">
<path d="M0.286255 28.6662V17.217C0.286255 14.4184 1.15344 12.1643 2.8878 10.4546C4.62217 8.74485 6.94233 7.88956 9.8483 7.88867C12.7543 7.88867 15.0815 8.73686 16.8301 10.4332C18.5786 12.1296 19.4529 14.3909 19.4529 17.217V28.6662H15.7719V17.1757C15.7719 15.4224 15.2357 13.9947 14.1634 12.8925C13.091 11.7903 11.681 11.2388 9.93338 11.2379C8.15647 11.2379 6.71058 11.7823 5.5957 12.8712C4.48081 13.9601 3.92381 15.3949 3.9247 17.1757V28.6662H0.286255Z" fill="#00CF79"/>
<path d="M105.547 28.6662V17.217C105.547 14.4175 106.414 12.1634 108.149 10.4546C109.883 8.74574 112.203 7.89045 115.109 7.88867C118.014 7.88867 120.342 8.73686 122.091 10.4332C123.84 12.1296 124.715 14.3909 124.714 17.217V28.6662H121.033V17.1757C121.033 15.4224 120.497 13.9947 119.424 12.8925C118.352 11.7903 116.942 11.2388 115.193 11.2379C113.416 11.2379 111.971 11.7823 110.857 12.8712C109.743 13.9601 109.186 15.3949 109.186 17.1757V28.6662H105.547Z" fill="white"/>
<path d="M66.205 28.6665V0.828125H69.967V7.2295H74.3858L73.8022 10.6933H69.967V28.6665H66.205Z" fill="white"/>
<path d="M76.5805 2.8363C76.5741 2.46299 76.6442 2.09232 76.7864 1.74722C76.9286 1.40212 77.14 1.08994 77.4074 0.82996C77.939 0.298479 78.6592 0 79.4101 0C80.161 0 80.8812 0.298479 81.4128 0.82996C81.6799 1.09013 81.8911 1.40235 82.0333 1.7474C82.1755 2.09246 82.2457 2.46303 82.2396 2.8363C82.2421 3.20215 82.17 3.56466 82.0279 3.90163C81.8857 4.23859 81.6764 4.54294 81.4128 4.79602C80.8808 5.32685 80.1607 5.62488 79.4101 5.62488C78.6594 5.62488 77.9393 5.32685 77.4074 4.79602C77.1435 4.54313 76.9341 4.23882 76.7919 3.90181C76.6497 3.5648 76.5777 3.2022 76.5805 2.8363ZM77.4938 28.667V7.63501H81.2439V28.667H77.4938Z" fill="white"/>
<path d="M46.1928 2.47476C46.4049 2.47583 46.6168 2.49097 46.8269 2.52006C46.8937 2.52695 46.9582 2.54782 47.0164 2.58133C47.0746 2.61484 47.125 2.66023 47.1646 2.71456C47.2124 2.78251 47.2616 2.84779 47.3042 2.91973C47.5979 3.42731 47.8931 3.93356 48.1842 4.44247C49.9292 7.48795 51.6693 10.5334 53.4046 13.5789C54.2385 15.0373 55.0685 16.4978 55.8944 17.9606C55.929 18.0219 55.9636 18.0819 55.9955 18.1432C56.0882 18.3154 56.1197 18.5142 56.0845 18.7067C56.0707 18.7886 56.0389 18.8664 55.9915 18.9345C55.7934 19.2303 55.5927 19.5273 55.3986 19.8218C53.4569 22.6576 51.5133 25.494 49.568 28.3307C48.6676 29.6443 47.765 30.9561 46.8602 32.2662C46.7791 32.3847 46.6966 32.5006 46.6129 32.6165C46.5767 32.6633 46.5376 32.7078 46.4959 32.7498C46.4301 32.8234 46.3399 32.8707 46.242 32.883C46.0736 32.9075 45.9042 32.9235 45.7342 32.9309C44.7757 32.9403 40.5896 32.9429 39.9129 32.9309C39.7202 32.9309 39.5274 32.903 39.3347 32.883C39.2186 32.8712 39.1117 32.8142 39.0369 32.7244C39.0126 32.6965 38.9868 32.6698 38.9598 32.6445C38.8702 32.5539 38.8036 32.4432 38.7654 32.3215C38.7272 32.1998 38.7187 32.0707 38.7405 31.9451C38.7518 31.8298 38.7951 31.7199 38.8654 31.628C39.3413 30.9859 39.8106 30.3397 40.2878 29.6989C42.2925 27.0043 44.2989 24.3092 46.3071 21.6136C46.9067 20.8063 47.5036 19.9936 48.0965 19.1836C48.1669 19.0864 48.2294 18.9865 48.3038 18.8892C48.3443 18.8384 48.3688 18.7768 48.3743 18.712C48.3803 18.6153 48.3803 18.5183 48.3743 18.4216C48.3648 18.3434 48.336 18.2687 48.2905 18.2044C48.034 17.8048 47.7814 17.4051 47.5235 17.0054C45.6145 14.047 43.7038 11.0876 41.7913 8.12743C40.89 6.73125 39.9967 5.32974 39.0994 3.93223C39.0422 3.84297 38.989 3.75104 38.9306 3.66578C38.8508 3.53952 38.8231 3.38712 38.8535 3.2408C38.8737 3.10769 38.9212 2.98023 38.993 2.86644C39.0589 2.75992 39.1496 2.67097 39.2572 2.60717C39.3649 2.54338 39.4863 2.50663 39.6112 2.50008C39.8638 2.47743 45.6079 2.4681 46.1928 2.47476Z" fill="#00CF79"/>
<path d="M57.0284 30.0254C56.9591 30.0235 56.8908 30.0076 56.8277 29.9788C56.7205 29.9343 56.6334 29.8518 56.5831 29.747C56.4076 29.37 56.2255 28.997 56.0513 28.6213C55.47 27.385 54.8899 26.1482 54.3112 24.911C54.2685 24.8243 54.2501 24.7276 54.258 24.6312C54.2487 24.4591 54.3064 24.2901 54.4189 24.1596L56.3358 21.2607C56.4169 21.1381 56.5033 21.0182 56.5871 20.897C56.6743 20.7755 56.8046 20.6921 56.9513 20.6638C57.0124 20.6495 57.0758 20.6486 57.1372 20.661C57.1987 20.6734 57.2568 20.6989 57.3076 20.7358C57.3761 20.783 57.4351 20.8426 57.4817 20.9116C57.5149 20.9609 57.5455 21.0129 57.5748 21.0649L62.0573 28.997C62.096 29.0459 62.1233 29.1029 62.1373 29.1637C62.1513 29.2245 62.1517 29.2877 62.1384 29.3487C62.1338 29.4182 62.1218 29.4869 62.1025 29.5538C62.0583 29.7061 61.9555 29.8345 61.8167 29.9109C61.7618 29.9454 61.6993 29.966 61.6346 29.9708C61.5216 29.9748 57.1893 30.0294 57.0284 30.0254Z" fill="white"/>
<path d="M54.9015 12.5237C54.9015 12.244 54.8776 12.3426 55.0131 12.1081C55.7629 10.8149 56.514 9.52178 57.2664 8.22863C57.3475 8.08874 57.4326 7.95152 57.5163 7.81297C57.5366 7.77686 57.5592 7.74215 57.5841 7.70906C57.6198 7.65766 57.6668 7.6151 57.7214 7.58463C57.776 7.55415 57.8368 7.53657 57.8992 7.5332C57.9909 7.5332 62.536 7.5332 62.5865 7.5332C62.6795 7.53823 62.767 7.57875 62.8311 7.64644C62.9365 7.74438 63.0124 7.86989 63.0504 8.00881C63.0657 8.06465 63.0693 8.12303 63.061 8.18032C63.0528 8.23762 63.0329 8.2926 63.0026 8.34187C62.9627 8.40981 62.9201 8.47509 62.8763 8.54037C62.3445 9.33971 61.8128 10.1391 61.2811 10.9384C60.1777 12.5708 59.0699 14.2015 57.9577 15.8303C57.8846 15.9369 57.8061 16.0408 57.7357 16.1488C57.6836 16.2255 57.6124 16.2872 57.5291 16.3279C57.4459 16.3685 57.3535 16.3867 57.2611 16.3806C57.1875 16.3777 57.1149 16.3633 57.0457 16.3379C56.9429 16.3059 56.8556 16.2366 56.8011 16.1434C56.7426 16.0448 56.6802 15.9476 56.623 15.8477C56.2189 15.1212 55.8156 14.3946 55.4133 13.6681C55.2657 13.4017 55.1222 13.1352 54.9719 12.8688C54.9175 12.7827 54.8923 12.6813 54.9002 12.5797C54.902 12.5611 54.9024 12.5424 54.9015 12.5237Z" fill="white"/>
<path d="M41.681 18.3025C41.6811 15.8607 40.8209 13.4972 39.2521 11.6289C37.6833 9.76052 35.5067 8.50722 33.1059 8.08997C30.7052 7.67271 28.2346 8.11828 26.1296 9.34813C24.0247 10.578 22.4206 12.5131 21.6002 14.8124C20.7798 17.1116 20.7957 19.6273 21.6452 21.9159C22.4947 24.2045 24.1232 26.1191 26.2436 27.3221C28.3639 28.525 30.84 28.9391 33.2353 28.4913C35.6305 28.0435 37.7911 26.7626 39.336 24.8744L36.5697 22.9893C35.7284 23.9335 34.6484 24.6325 33.4436 25.0127C32.2388 25.3929 30.954 25.4401 29.7247 25.1494C28.4954 24.8587 27.3672 24.2408 26.4592 23.3609C25.5511 22.481 24.8969 21.3718 24.5656 20.1503H41.5162C41.6265 19.5406 41.6817 18.9222 41.681 18.3025ZM24.5523 16.504C24.9488 15.0035 25.8294 13.6765 27.0569 12.7298C28.2843 11.783 29.7898 11.2697 31.3387 11.2697C32.8876 11.2697 34.393 11.783 35.6204 12.7298C36.8479 13.6765 37.7285 15.0035 38.125 16.504H24.5523Z" fill="#00CF79"/>
<path d="M93.704 7.88281C91.6618 7.88281 89.6655 8.48971 87.9675 9.62677C86.2696 10.7638 84.9462 12.3799 84.1647 14.2708C83.3833 16.1616 83.1789 18.2422 83.5774 20.2494C83.9759 22.2567 84.9594 24.1004 86.4035 25.5475C87.8477 26.9946 89.6875 27.9799 91.6905 28.3791C93.6934 28.7782 95.7695 28.5731 97.6562 27.7897C99.5428 27.0063 101.155 25.6798 102.29 23.978C103.424 22.2762 104.029 20.2755 104.029 18.2289C104.029 16.8701 103.762 15.5247 103.243 14.2693C102.724 13.014 101.964 11.8734 101.005 10.9127C100.046 9.95191 98.9078 9.18984 97.6551 8.66998C96.4025 8.15012 95.0598 7.88264 93.704 7.88281ZM93.704 25.2458C92.3192 25.2458 90.9655 24.8343 89.8141 24.0632C88.6626 23.2922 87.7652 22.1963 87.2353 20.9142C86.7053 19.632 86.5667 18.2212 86.8368 16.86C87.107 15.4989 87.7738 14.2486 88.753 13.2673C89.7323 12.2859 90.9798 11.6176 92.338 11.3469C93.6962 11.0761 95.104 11.2151 96.3834 11.7462C97.6628 12.2773 98.7564 13.1767 99.5257 14.3306C100.295 15.4845 100.706 16.8411 100.706 18.2289C100.704 20.0894 99.9657 21.8731 98.653 23.1887C97.3403 24.5042 95.5604 25.244 93.704 25.2458Z" fill="white"/>
<path d="M111.443 37.5452V44.3169H109.05V37.5452C109.05 36.6805 108.794 35.8352 108.314 35.1164C107.835 34.3975 107.153 33.8373 106.356 33.5066C105.559 33.1758 104.681 33.0894 103.835 33.2583C102.989 33.4272 102.212 33.8437 101.602 34.4552C100.991 35.0668 100.576 35.8459 100.408 36.694C100.24 37.5421 100.326 38.4212 100.656 39.2201C100.987 40.0189 101.546 40.7017 102.263 41.1821C102.981 41.6625 103.824 41.9189 104.687 41.9189H108.439V44.3169H104.687C103.356 44.3172 102.055 43.9235 100.946 43.1853C99.8375 42.4471 98.9711 41.3972 98.4557 40.1674C97.9403 38.9376 97.7988 37.5826 98.0489 36.2725C98.2991 34.9624 98.9297 33.7555 99.8618 32.8033C100.794 31.851 101.986 31.1958 103.288 30.9199C104.59 30.644 105.945 30.7596 107.182 31.2523C108.418 31.745 109.483 32.5928 110.24 33.6894C110.998 34.7859 111.416 36.0823 111.442 37.416C111.443 37.4586 111.443 37.5025 111.443 37.5452Z" fill="#00CF79"/>
<path d="M90.5255 41.9004C90.3926 41.9124 90.2596 41.919 90.1267 41.919C89.9938 41.919 89.8608 41.919 89.7279 41.9004H90.5255Z" fill="#00CF79"/>
<path d="M90.5255 41.9004C90.3926 41.9124 90.2596 41.919 90.1267 41.919C89.9938 41.919 89.8608 41.919 89.7279 41.9004H90.5255Z" fill="#00CF79"/>
<path d="M96.8811 37.549C96.8813 39.2726 96.225 40.9313 95.0464 42.1865C93.8677 43.4417 92.2555 44.1989 90.5388 44.3034C90.4059 44.3127 90.2729 44.3167 90.128 44.3167H86.4284V41.9001H89.7305C89.8635 41.9121 89.9964 41.9187 90.1294 41.9187C90.2623 41.9187 90.3952 41.9187 90.5282 41.9001C91.3697 41.8216 92.1703 41.4997 92.8326 40.9735C93.4949 40.4474 93.9904 39.7397 94.2587 38.9366C94.527 38.1334 94.5567 37.2694 94.344 36.4497C94.1314 35.6299 93.6856 34.8898 93.0609 34.3193C92.4362 33.7488 91.6596 33.3726 90.8254 33.2363C89.9913 33.1001 89.1356 33.2097 88.3625 33.5519C87.5894 33.8941 86.9322 34.454 86.4708 35.1637C86.0094 35.8733 85.7638 36.702 85.7637 37.549V50H83.3709V37.7928C83.3709 37.7129 83.3709 37.6303 83.3709 37.549C83.3709 35.7541 84.0824 34.0327 85.3489 32.7635C86.6153 31.4943 88.333 30.7812 90.124 30.7812C91.9151 30.7812 93.6327 31.4943 94.8992 32.7635C96.1657 34.0327 96.8771 35.7541 96.8771 37.549H96.8811Z" fill="#00CF79"/>
<path d="M90.5255 41.9004C90.3926 41.9124 90.2596 41.919 90.1267 41.919C89.9938 41.919 89.8608 41.919 89.7279 41.9004H90.5255Z" fill="#00CF79"/>
<path d="M90.5388 44.3027V44.3161H90.128C90.2662 44.3161 90.4032 44.3121 90.5388 44.3027Z" fill="#00CF79"/>
<path d="M124.687 30.7812H122.294V50H124.687V30.7812Z" fill="#00CF79"/>
<path d="M121.679 41.9054V44.3034H118.69C117.1 44.3034 115.575 43.6703 114.45 42.5433C113.325 41.4163 112.693 39.8877 112.692 38.2937V30.7812H115.085V38.2937C115.087 39.2514 115.467 40.1694 116.143 40.8465C116.819 41.5235 117.735 41.9043 118.69 41.9054H121.679Z" fill="#00CF79"/>
</svg>
